<svg width="1200" height="630" viewBox="0 0 1200 630" xmlns="http://www.w3.org/2000/svg">
  <defs>
    <linearGradient id="bg" x1="0%" y1="0%" x2="100%" y2="100%">
      <stop offset="0%" style="stop-color:#0f0f13"/>
      <stop offset="100%" style="stop-color:#1a1a24"/>
    </linearGradient>
    <radialGradient id="glow" cx="50%" cy="48%" r="30%">
      <stop offset="0%" style="stop-color:#ff4f00;stop-opacity:0.15"/>
      <stop offset="100%" style="stop-color:#ff4f00;stop-opacity:0"/>
    </radialGradient>
  </defs>
  <rect width="1200" height="630" fill="url(#bg)"/>
  <rect width="1200" height="630" fill="url(#glow)"/>
  <!-- Logo mark -->
  <rect x="548" y="168" width="104" height="104" rx="22" stroke="#FF4F00" stroke-width="7" fill="none"/>
  <polyline points="568,252 584,228 596,244 608,232 624,256" stroke="#FF4F00" stroke-width="5" fill="none" stroke-linecap="round" stroke-linejoin="round"/>
  <circle cx="580" cy="210" r="7" fill="#FF4F00"/>
  <!-- Title -->
  <text x="600" y="330" font-family="system-ui,-apple-system,sans-serif" font-size="76" font-weight="800" fill="#ffffff" text-anchor="middle" letter-spacing="-2">Pix<tspan fill="#FF4F00">Convert</tspan></text>
  <!-- Subtitle -->
  <text x="600" y="394" font-family="system-ui,-apple-system,sans-serif" font-size="30" fill="#ff4f00" text-anchor="middle" font-weight="600">Free PDF &amp; Image Converter</text>
  <!-- Tagline -->
  <text x="600" y="450" font-family="system-ui,-apple-system,sans-serif" font-size="20" fill="#888888" text-anchor="middle">Convert privately in your browser — no uploads, no sign-up</text>
  <!-- Pills row -->
  <rect x="180" y="490" width="130" height="34" rx="17" fill="#FF4F0022" stroke="#FF4F0055" stroke-width="1"/>
  <text x="245" y="512" font-family="system-ui" font-size="16" fill="#ff8055" text-anchor="middle">PDF Tools</text>
  <rect x="330" y="490" width="150" height="34" rx="17" fill="#FF4F0022" stroke="#FF4F0055" stroke-width="1"/>
  <text x="405" y="512" font-family="system-ui" font-size="16" fill="#ff8055" text-anchor="middle">Image Convert</text>
  <rect x="500" y="490" width="120" height="34" rx="17" fill="#FF4F0022" stroke="#FF4F0055" stroke-width="1"/>
  <text x="560" y="512" font-family="system-ui" font-size="16" fill="#ff8055" text-anchor="middle">GIF Maker</text>
  <rect x="640" y="490" width="130" height="34" rx="17" fill="#FF4F0022" stroke="#FF4F0055" stroke-width="1"/>
  <text x="705" y="512" font-family="system-ui" font-size="16" fill="#ff8055" text-anchor="middle">OCR / Text</text>
  <rect x="790" y="490" width="130" height="34" rx="17" fill="#FF4F0022" stroke="#FF4F0055" stroke-width="1"/>
  <text x="855" y="512" font-family="system-ui" font-size="16" fill="#ff8055" text-anchor="middle">37+ Tools</text>
</svg>
